<svg width="270" height="70" viewBox="0 0 270 70" fill="none" xmlns="http://www.w3.org/2000/svg">
<path d="M108.665 60.2L105.584 52.1431H91.8524L88.9168 60.2H81.2746L95.1276 24.6237H102.236L116.501 60.2H108.665ZM96.9714 38.0922L94.0359 46.1248H103.279L100.295 38.0922C99.907 37.0568 99.5593 35.9971 99.2519 34.9132C98.9608 33.8292 98.7667 32.9475 98.6697 32.268H98.4756C98.1845 34.2094 97.6831 36.1508 96.9714 38.0922Z" fill="black"/>
<path d="M143.382 54.1816V60.2H120.335V24.6237H127.492V54.1816H143.382Z" fill="black"/>
<path d="M162.621 54.6427C164.449 54.6427 165.848 54.3434 166.818 53.7448C167.805 53.1462 168.493 52.216 168.881 50.954C169.269 49.6759 169.463 47.9287 169.463 45.7122V24.6237H176.62V45.5424C176.62 49.1663 176.183 52.0865 175.31 54.303C174.436 56.5194 172.997 58.1615 170.991 59.2293C168.986 60.2809 166.252 60.8067 162.791 60.8067C159.152 60.8067 156.265 60.2485 154.13 59.1322C152.011 58.0159 150.499 56.3576 149.593 54.1574C148.688 51.9409 148.235 49.0854 148.235 45.5909V24.6237H155.392V45.8093C155.392 47.9287 155.634 49.6355 156.119 50.9298C156.621 52.2079 157.397 53.1462 158.448 53.7448C159.5 54.3434 160.891 54.6427 162.621 54.6427Z" fill="black"/>
<path d="M208.911 24.6237H219.707V60.2H213.035V32.1709L205.296 60.2H198.406L190.57 32.1709V60.2H183.898V24.6237H194.646L201.875 49.8135L208.911 24.6237Z" fill="black"/>
<path d="M248.675 24.6237H255.346V60.2H248.141L233.851 37.0002V60.2H227.18V24.6237H234.142L248.675 48.3817V24.6237Z" fill="black"/>
<path d="M262.843 60.2V24.6237H270V60.2H262.843Z" fill="black"/>
<path d="M97.3377 13.7764C97.6339 13.7764 97.9215 13.7081 98.2005 13.5714C98.4853 13.429 98.7216 13.1783 98.9096 12.8194C99.1032 12.4605 99.2 11.9792 99.2 11.3753V6.33382H101.6V15.4H99.3623V14.2122C99.0434 14.6623 98.6447 15.0098 98.1664 15.2547C97.6937 15.494 97.1754 15.6136 96.6116 15.6136C95.6036 15.6136 94.8348 15.3459 94.3051 14.8104C93.7812 14.2749 93.5192 13.5229 93.5192 12.5545V6.33382H95.9197V11.9991C95.9197 12.6029 96.0336 13.0501 96.2614 13.3407C96.4892 13.6312 96.848 13.7764 97.3377 13.7764Z" fill="black"/>
<path d="M109.665 9.7347C109.665 9.15365 109.556 8.71501 109.34 8.41878C109.124 8.11686 108.762 7.9659 108.255 7.9659C107.703 7.9659 107.25 8.16528 106.897 8.56405C106.549 8.95711 106.379 9.56095 106.384 10.3756V15.4H103.984V6.33382H106.222V7.52157C106.547 7.06584 106.945 6.72119 107.418 6.48763C107.891 6.24837 108.412 6.12874 108.981 6.12874C109.978 6.12874 110.741 6.39649 111.271 6.93197C111.8 7.46175 112.065 8.20801 112.065 9.17074V15.4H109.665V9.7347Z" fill="black"/>
<path d="M118.182 13.7764C118.688 13.7764 119.104 13.6625 119.429 13.4347C119.759 13.2011 119.987 12.8935 120.112 12.5118L122.504 12.8878C122.185 13.7708 121.667 14.4458 120.949 14.9129C120.232 15.38 119.352 15.6136 118.31 15.6136C117.33 15.6136 116.504 15.4199 115.832 15.0326C115.16 14.6452 114.656 14.1012 114.32 13.4005C113.984 12.6941 113.816 11.8681 113.816 10.9224C113.816 10.0509 113.99 9.25049 114.337 8.52132C114.691 7.79216 115.203 7.2111 115.875 6.77816C116.547 6.34522 117.347 6.12874 118.276 6.12874C119.158 6.12874 119.924 6.31673 120.574 6.69271C121.228 7.06299 121.735 7.60986 122.094 8.33333C122.453 9.05111 122.632 9.91984 122.632 10.9395V11.6744H116.26C116.316 12.3466 116.513 12.865 116.849 13.2296C117.185 13.5942 117.629 13.7764 118.182 13.7764ZM116.268 9.92269H120.24C120.183 9.29037 119.984 8.80615 119.642 8.47005C119.301 8.13395 118.848 7.9659 118.284 7.9659C117.749 7.9659 117.296 8.13965 116.926 8.48714C116.556 8.82894 116.336 9.30746 116.268 9.92269Z" fill="black"/>
<path d="M127.595 7.83773C127.214 7.83773 126.906 7.90609 126.673 8.04281C126.439 8.17383 126.323 8.35612 126.323 8.58968C126.323 8.76628 126.377 8.91724 126.485 9.04256C126.599 9.16219 126.795 9.27328 127.074 9.37581C127.359 9.47266 127.755 9.5638 128.262 9.64925C129.412 9.84294 130.261 10.1705 130.807 10.6319C131.354 11.0876 131.628 11.7314 131.628 12.5631C131.628 13.1441 131.474 13.6682 131.166 14.1353C130.859 14.5968 130.415 14.9585 129.834 15.2205C129.258 15.4826 128.581 15.6136 127.801 15.6136C126.61 15.6136 125.673 15.3772 124.99 14.9044C124.307 14.4259 123.894 13.728 123.751 12.8109L125.998 12.452C126.101 12.9305 126.294 13.2922 126.579 13.5372C126.864 13.7764 127.271 13.8961 127.801 13.8961C128.256 13.8961 128.621 13.8106 128.894 13.6397C129.167 13.4688 129.304 13.2324 129.304 12.9305C129.304 12.7653 129.258 12.6257 129.167 12.5118C129.076 12.3922 128.908 12.2868 128.663 12.1956C128.418 12.1045 128.068 12.0247 127.613 11.9564C126.354 11.7627 125.44 11.4095 124.87 10.8968C124.301 10.3841 124.016 9.70052 124.016 8.84603C124.016 8.29346 124.161 7.81209 124.452 7.40194C124.742 6.99178 125.158 6.67847 125.699 6.462C126.246 6.23983 126.892 6.12874 127.638 6.12874C128.697 6.12874 129.552 6.33952 130.201 6.76107C130.85 7.18262 131.243 7.78076 131.38 8.5555L129.09 8.88875C129.022 8.55265 128.854 8.29346 128.586 8.11117C128.324 7.92887 127.994 7.83773 127.595 7.83773Z" fill="black"/>
<path d="M135.831 14.4259H135.788V18.8692H133.387V6.33382H135.625V7.66683H135.668C135.981 7.14274 136.386 6.75537 136.881 6.50472C137.382 6.25407 137.918 6.12874 138.487 6.12874C139.216 6.12874 139.868 6.32813 140.444 6.72689C141.024 7.11996 141.48 7.68107 141.81 8.41024C142.141 9.13941 142.306 9.9882 142.306 10.9566C142.306 11.9137 142.143 12.7454 141.819 13.4517C141.494 14.1524 141.041 14.6879 140.461 15.0582C139.885 15.4285 139.219 15.6136 138.462 15.6136C137.875 15.6136 137.385 15.5282 136.992 15.3573C136.605 15.1864 136.218 14.8759 135.831 14.4259ZM137.906 8.04281C137.286 8.04281 136.773 8.28491 136.369 8.76912C135.97 9.24764 135.771 10.0138 135.771 11.0677C135.771 11.6089 135.853 12.0789 136.018 12.4776C136.189 12.8707 136.429 13.1726 136.736 13.3834C137.044 13.5942 137.405 13.6995 137.821 13.6995C138.482 13.6995 138.983 13.4574 139.324 12.9732C139.672 12.4833 139.846 11.7741 139.846 10.8455C139.846 9.96257 139.672 9.27612 139.324 8.78621C138.983 8.29061 138.51 8.04281 137.906 8.04281Z" fill="black"/>
<path d="M162.985 9.61798C162.719 8.37198 161.613 6.91598 158.912 6.91598C155.119 6.91598 154.531 9.88398 154.531 11.228C154.531 12.6 154.923 15.484 158.982 15.484C161.795 15.484 163.111 14.21 163.111 12.516V11.27H158.856V12.292H161.725C161.725 13.958 160.424 14.462 158.996 14.462C156.813 14.476 155.973 12.978 155.973 11.214C155.973 9.37998 156.785 7.95198 158.912 7.93798C160.494 7.93798 161.305 8.63798 161.515 9.74398L162.985 9.61798Z" fill="black"/>
<path d="M168.284 15.484C171.153 15.484 172.259 14.154 172.259 12.6V6.99998H170.817V12.53C170.817 13.874 169.614 14.462 168.284 14.462C166.899 14.462 165.751 13.846 165.751 12.432V6.99998H164.295V12.572C164.295 14.14 165.373 15.484 168.284 15.484Z" fill="black"/>
<path d="M180.754 15.4H182.363L178.612 6.99998H177.017L173.266 15.4H174.875L175.673 13.524H179.942L180.754 15.4ZM177.269 9.70198L177.814 8.25998L178.36 9.71598L179.536 12.502H176.093L177.269 9.70198Z" fill="black"/>
<path d="M184.076 15.4H185.518V11.816H187.715L190.514 15.4H192.264L190.038 12.516L189.451 11.788C190.822 11.564 191.578 10.78 191.578 9.39398C191.578 8.51198 191.2 6.99998 189.283 6.99998H184.076V15.4ZM190.122 9.40798C190.122 10.038 189.661 10.794 188.919 10.794H185.518V8.00798H188.933C189.745 8.00798 190.122 8.70798 190.122 9.40798Z" fill="black"/>
<path d="M200.395 15.4H202.004L198.253 6.99998H196.658L192.907 15.4H194.516L195.314 13.524H199.583L200.395 15.4ZM196.91 9.70198L197.456 8.25998L198.001 9.71598L199.177 12.502H195.734L196.91 9.70198Z" fill="black"/>
<path d="M201.396 8.00798H204.671V15.4H206.113V8.00798H209.346V6.99998H201.396V8.00798Z" fill="black"/>
<path d="M211.181 15.4H212.623V6.99998H211.181V15.4Z" fill="black"/>
<path d="M221.767 15.4H223.572V6.99998H222.131L222.117 13.552L221.599 12.712L217.414 6.99998H215.608V15.4H217.064L217.05 8.84798L217.526 9.68798L221.767 15.4Z" fill="black"/>
<path d="M233.909 9.61798C233.643 8.37198 232.537 6.91598 229.836 6.91598C226.043 6.91598 225.455 9.88398 225.455 11.228C225.455 12.6 225.847 15.484 229.906 15.484C232.719 15.484 234.035 14.21 234.035 12.516V11.27H229.78V12.292H232.649C232.649 13.958 231.347 14.462 229.92 14.462C227.736 14.476 226.897 12.978 226.897 11.214C226.897 9.37998 227.709 7.95198 229.836 7.93798C231.417 7.93798 232.229 8.63798 232.439 9.74398L233.909 9.61798Z" fill="black"/>
<path d="M239.208 15.484C242.077 15.484 243.183 14.154 243.183 12.6V6.99998H241.741V12.53C241.741 13.874 240.538 14.462 239.208 14.462C237.822 14.462 236.675 13.846 236.675 12.432V6.99998H235.219V12.572C235.219 14.14 236.297 15.484 239.208 15.484Z" fill="black"/>
<path d="M245.323 15.4H252.349V14.392H246.765V11.69H251.565V10.682H246.765V8.02198H252.279V6.99998H245.323V15.4Z" fill="black"/>
<path d="M253.212 8.00798H256.487V15.4H257.928V8.00798H261.162V6.99998H253.212V8.00798Z" fill="black"/>
<path d="M268.052 15.4H269.661L265.91 6.99998H264.315L260.564 15.4H262.173L262.971 13.524H267.24L268.052 15.4ZM264.567 9.70198L265.113 8.25998L265.658 9.71598L266.834 12.502H263.391L264.567 9.70198ZM264.903 5.54398L266.638 3.35999H265.337L263.783 5.54398H264.903Z" fill="black"/>
<path d="M37.7896 0L54.759 29.4H20.8202L37.7896 0Z" fill="#00AAF1"/>
<path d="M37.7896 60.2L20.8202 30.8H54.759L37.7896 60.2Z" fill="#00AAF1"/>
<path d="M55.9845 30.8L39.0151 60.2H72.954L55.9845 30.8Z" fill="#00AAF1"/>
<path d="M19.5946 30.8L2.62518 60.2H36.564L19.5946 30.8Z" fill="#00AAF1"/>
</svg>
