<svg width="35" height="35" viewBox="0 0 35 35" fill="none" xmlns="http://www.w3.org/2000/svg">
<path d="M17.5 8.73375C12.6662 8.73375 8.73376 12.667 8.73376 17.5008C8.73376 22.3346 12.6662 26.2678 17.5 26.2678C22.333 26.2678 26.2662 22.3354 26.2662 17.5008C26.2662 12.6662 22.333 8.73375 17.5 8.73375Z" fill="white"/>
<path d="M17.5 6.15678C16.5552 6.15678 15.7896 5.39105 15.7896 4.44708V1.71047C15.7896 0.765722 16.5552 0 17.5 0C18.4447 0 19.2104 0.765722 19.2104 1.71047V4.44708C19.2104 5.39105 18.4439 6.15678 17.5 6.15678Z" fill="white"/>
<path d="M17.5 28.8424C16.5552 28.8424 15.7896 29.6082 15.7896 30.5529V33.2887C15.7896 34.2343 16.5552 35 17.5 35C18.4447 35 19.2104 34.2343 19.2104 33.2887V30.5529C19.2104 29.6082 18.4439 28.8424 17.5 28.8424Z" fill="white"/>
<path d="M25.52 9.4793C24.8527 8.81123 24.8527 7.72853 25.52 7.06046L27.4552 5.12523C28.1225 4.45793 29.206 4.45793 29.874 5.12523C30.5421 5.7933 30.5421 6.87678 29.874 7.54407L27.9388 9.4793C27.2715 10.1474 26.1888 10.1474 25.52 9.4793Z" fill="white"/>
<path d="M9.47928 25.5215C8.81122 24.8526 7.72853 24.8526 7.06047 25.5215L5.12527 27.4559C4.45798 28.1232 4.45721 29.2075 5.12527 29.8748C5.79333 30.5421 6.87679 30.5421 7.54408 29.8748L9.47928 27.9388C10.1473 27.2715 10.1473 26.188 9.47928 25.5215Z" fill="white"/>
<path d="M28.8424 17.5C28.8424 16.5552 29.6081 15.7895 30.5529 15.7895H33.2895C34.2343 15.7895 35 16.5552 35 17.5C35 18.4447 34.2343 19.2097 33.2895 19.2097H30.5529C29.6081 19.2097 28.8424 18.4447 28.8424 17.5Z" fill="white"/>
<path d="M6.15676 17.5C6.15676 16.5552 5.39104 15.7895 4.44629 15.7895H1.71047C0.76572 15.7895 0 16.5552 0 17.5C0 18.4447 0.76572 19.2097 1.71047 19.2097H4.44706C5.39104 19.2097 6.15676 18.4447 6.15676 17.5Z" fill="white"/>
<path d="M25.5199 25.5215C26.1879 24.8542 27.2714 24.8542 27.9387 25.5215L29.874 27.4567C30.5421 28.1232 30.5421 29.2075 29.874 29.8747C29.2059 30.542 28.1232 30.542 27.4551 29.8747L25.5199 27.9395C24.8518 27.2714 24.8518 26.1887 25.5199 25.5215Z" fill="white"/>
<path d="M9.47932 9.4793C10.1474 8.81123 10.1474 7.72853 9.47932 7.06046L7.54412 5.12601C6.87606 4.45794 5.79337 4.45794 5.12531 5.12601C4.45725 5.7933 4.45725 6.87678 5.12531 7.54407L7.06051 9.4793C7.72857 10.1481 8.81126 10.1481 9.47932 9.4793Z" fill="white"/>
</svg>
