<svg width="40" height="35" viewBox="0 0 40 35" fill="none" xmlns="http://www.w3.org/2000/svg">
<path d="M39.3286 15.8168L33.2664 10.1203V3.53998C33.2664 2.35016 32.2403 1.3859 30.9722 1.3859C29.7071 1.3859 28.681 2.35016 28.681 3.53998V5.81166L24.1672 1.57005C21.9355 -0.525838 18.0554 -0.52212 15.8289 1.57384L0.671097 15.8168C-0.223699 16.6593 -0.223699 18.0225 0.671097 18.8637C1.5663 19.7059 3.01984 19.7059 3.91471 18.8637L19.071 4.62032C19.5648 4.15879 20.435 4.15879 20.9262 4.61895L36.0851 18.8637C36.5346 19.2848 37.1206 19.4943 37.7065 19.4943C38.2935 19.4943 38.8805 19.2846 39.3287 18.8637C40.2238 18.0225 40.2238 16.6594 39.3286 15.8168Z" fill="white"/>
<path d="M20.7963 8.70929C20.3559 8.29571 19.6429 8.29571 19.2038 8.70929L5.87097 21.234C5.66048 21.4317 5.54114 21.7017 5.54114 21.9834V31.1184C5.54114 33.262 7.3908 35 9.67196 35H16.273V25.3939H23.7256V35H30.3267C32.6078 35 34.4575 33.262 34.4575 31.1185V21.9834C34.4575 21.7017 34.3392 21.4317 34.1276 21.234L20.7963 8.70929Z" fill="white"/>
</svg>
